# This file uses centimeters as units for non-parametric coordinates.

mtllib backdrop.mtl
g default
v -11.915712 0.088830 11.648149
v 24.035045 0.088830 11.648149
v -11.915712 0.415421 11.648149
v 24.035045 0.415421 11.648149
v -11.915712 0.415421 -8.243069
v 24.035045 0.415421 -8.243069
v -11.915712 0.088830 -8.243069
v 24.035045 0.088830 -8.243069
vt 0.375000 0.000000
vt 0.625000 0.000000
vt 0.375000 0.250000
vt 0.625000 0.250000
vt 0.375000 0.500000
vt 0.625000 0.500000
vt 0.375000 0.750000
vt 0.625000 0.750000
vt 0.375000 1.000000
vt 0.625000 1.000000
vt 0.875000 0.000000
vt 0.875000 0.250000
vt 0.125000 0.000000
vt 0.125000 0.250000
vn 0.000000 0.000000 1.000000
vn 0.000000 0.000000 1.000000
vn 0.000000 0.000000 1.000000
vn 0.000000 0.000000 1.000000
vn 0.000000 1.000000 0.000000
vn 0.000000 1.000000 0.000000
vn 0.000000 1.000000 0.000000
vn 0.000000 1.000000 0.000000
vn 0.000000 0.000000 -1.000000
vn 0.000000 0.000000 -1.000000
vn 0.000000 0.000000 -1.000000
vn 0.000000 0.000000 -1.000000
vn 0.000000 -1.000000 0.000000
vn 0.000000 -1.000000 0.000000
vn 0.000000 -1.000000 0.000000
vn 0.000000 -1.000000 0.000000
vn 1.000000 0.000000 0.000000
vn 1.000000 0.000000 0.000000
vn 1.000000 0.000000 0.000000
vn 1.000000 0.000000 0.000000
vn -1.000000 0.000000 0.000000
vn -1.000000 0.000000 0.000000
vn -1.000000 0.000000 0.000000
vn -1.000000 0.000000 0.000000
s off
g pCube1
usemtl initialShadingGroup
f 1/1/1 2/2/2 4/4/3 3/3/4
f 3/3/5 4/4/6 6/6/7 5/5/8
f 5/5/9 6/6/10 8/8/11 7/7/12
f 7/7/13 8/8/14 2/10/15 1/9/16
f 2/2/17 8/11/18 6/12/19 4/4/20
f 7/13/21 1/1/22 3/3/23 5/14/24
g default
v -11.951600 0.073827 -8.263453
v 23.998794 0.122104 -8.145310
v -11.953301 0.070079 -7.936888
v 23.997094 0.118355 -7.818745
v -11.997016 19.959941 -7.708790
v 23.953379 20.008218 -7.590648
v -11.995315 19.963690 -8.035355
v 23.955079 20.011966 -7.917213
vt 0.375000 0.000000
vt 0.625000 0.000000
vt 0.375000 0.250000
vt 0.625000 0.250000
vt 0.375000 0.500000
vt 0.625000 0.500000
vt 0.375000 0.750000
vt 0.625000 0.750000
vt 0.375000 1.000000
vt 0.625000 1.000000
vt 0.875000 0.000000
vt 0.875000 0.250000
vt 0.125000 0.000000
vt 0.125000 0.250000
vn 0.001380 -0.999933 -0.011472
vn 0.001380 -0.999933 -0.011472
vn 0.001380 -0.999933 -0.011472
vn 0.001380 -0.999933 -0.011472
vn -0.003271 -0.011474 0.999929
vn -0.003271 -0.011474 0.999929
vn -0.003271 -0.011474 0.999929
vn -0.003271 -0.011474 0.999929
vn -0.001380 0.999933 0.011472
vn -0.001380 0.999933 0.011472
vn -0.001380 0.999933 0.011472
vn -0.001380 0.999933 0.011472
vn 0.003271 0.011474 -0.999929
vn 0.003271 0.011474 -0.999929
vn 0.003271 0.011474 -0.999929
vn 0.003271 0.011474 -0.999929
vn 0.999984 0.002138 0.005231
vn 0.999984 0.002138 0.005231
vn 0.999984 0.002138 0.005231
vn 0.999984 0.002138 0.005231
vn -0.999984 -0.002138 -0.005231
vn -0.999984 -0.002138 -0.005231
vn -0.999984 -0.002138 -0.005231
vn -0.999984 -0.002138 -0.005231
s off
g pCube2
usemtl initialShadingGroup
f 9/15/25 10/16/26 12/18/27 11/17/28
f 11/17/29 12/18/30 14/20/31 13/19/32
f 13/19/33 14/20/34 16/22/35 15/21/36
f 15/21/37 16/22/38 10/24/39 9/23/40
f 10/16/41 16/25/42 14/26/43 12/18/44
f 15/27/45 9/15/46 11/17/47 13/28/48
